# WaveFront *.obj file (generated by Autodesk ATF)

mtllib battery_research_DETECTOR_SMALL_ROUND_FINAL_ v1.mtl

g Body1

v 1.950000 0.000000 0.000000
v 1.916798 0.000000 0.358312
v 1.818321 0.000000 0.704421
v 1.657923 0.000000 1.026543
v 1.441067 0.000000 1.313707
v 1.175138 0.000000 1.556134
v 0.869190 0.000000 1.745568
v 0.533643 0.000000 1.875560
v 0.179923 0.000000 1.941682
v -0.179923 0.000000 1.941682
v -0.533643 0.000000 1.875560
v -0.869190 0.000000 1.745568
v -1.175138 0.000000 1.556134
v -1.441067 0.000000 1.313707
v -1.657923 0.000000 1.026543
v -1.818321 0.000000 0.704421
v -1.916798 0.000000 0.358312
v -1.950000 0.000000 0.000000
v -1.916798 0.000000 -0.358312
v -1.818321 0.000000 -0.704421
v -1.657923 0.000000 -1.026543
v -1.441067 0.000000 -1.313707
v -1.175138 0.000000 -1.556134
v -0.869190 0.000000 -1.745568
v -0.533643 0.000000 -1.875560
v -0.179923 0.000000 -1.941682
v 0.179923 0.000000 -1.941682
v 0.533643 0.000000 -1.875560
v 0.869190 0.000000 -1.745568
v 1.175138 0.000000 -1.556134
v 1.441067 0.000000 -1.313707
v 1.657923 0.000000 -1.026543
v 1.818321 0.000000 -0.704421
v 1.916798 0.000000 -0.358312
v 2.149336 6.000000 -0.209525
v 2.153066 6.000000 0.166887
v 2.091377 6.000000 0.538228
v 1.966142 6.000000 0.893214
v 1.781167 6.000000 1.221061
v 1.542072 6.000000 1.511807
v 1.256122 6.000000 1.756617
v 0.932005 6.000000 1.948054
v 0.579570 6.000000 2.080299
v 0.209525 6.000000 2.149336
v -0.166887 6.000000 2.153066
v -0.538228 6.000000 2.091377
v -0.893214 6.000000 1.966142
v -1.221061 6.000000 1.781167
v -1.511807 6.000000 1.542072
v -1.756617 6.000000 1.256122
v -1.948054 6.000000 0.932005
v -2.080299 6.000000 0.579570
v -2.149336 6.000000 0.209525
v -2.153066 6.000000 -0.166887
v -2.091377 6.000000 -0.538228
v -1.966142 6.000000 -0.893214
v -1.781167 6.000000 -1.221061
v -1.542072 6.000000 -1.511807
v -1.256122 6.000000 -1.756617
v -0.932005 6.000000 -1.948054
v -0.579570 6.000000 -2.080299
v -0.209525 6.000000 -2.149336
v 0.166887 6.000000 -2.153066
v 0.538228 6.000000 -2.091377
v 0.893214 6.000000 -1.966142
v 1.221061 6.000000 -1.781167
v 1.511807 6.000000 -1.542072
v 1.756617 6.000000 -1.256122
v 1.948054 6.000000 -0.932005
v 2.080299 6.000000 -0.579570
vt -1.916798 -0.358312 0.000000
vt 1.916798 -0.358312 0.000000
vt -1.950000 0.000000 0.000000
vt 1.950000 -0.000000 0.000000
vt -1.916798 0.358312 0.000000
vt 1.916798 0.358312 0.000000
vt -1.818321 0.704421 0.000000
vt 1.818321 0.704421 0.000000
vt -1.657923 1.026543 0.000000
vt 1.657923 1.026543 0.000000
vt -1.441067 1.313707 0.000000
vt 1.441067 1.313707 0.000000
vt -1.175138 1.556134 0.000000
vt 1.175138 1.556134 0.000000
vt -0.869190 1.745568 0.000000
vt 0.869190 1.745568 0.000000
vt -0.533643 1.875560 0.000000
vt 0.533643 1.875560 0.000000
vt -0.179923 1.941682 0.000000
vt 0.179923 1.941682 0.000000
vt 1.818321 -0.704421 0.000000
vt -1.818321 -0.704421 0.000000
vt 1.657923 -1.026543 0.000000
vt -1.657923 -1.026543 0.000000
vt 1.441067 -1.313707 0.000000
vt -1.441067 -1.313707 0.000000
vt 1.175138 -1.556134 0.000000
vt -1.175138 -1.556134 0.000000
vt 0.869190 -1.745568 0.000000
vt -0.869190 -1.745568 0.000000
vt 0.533643 -1.875560 0.000000
vt -0.533643 -1.875560 0.000000
vt 0.179923 -1.941682 0.000000
vt -0.179923 -1.941682 0.000000
vt -3.001829 -0.158949 0.000000
vt 3.001829 0.000000 0.000000
vt -3.001829 0.199674 0.000000
vt 3.001829 0.379719 0.000000
vt -3.001829 0.558298 0.000000
vt 3.001829 0.759438 0.000000
vt -3.001829 0.916922 0.000000
vt 3.001829 1.139158 0.000000
vt -3.001829 1.275545 0.000000
vt 3.001829 1.518877 0.000000
vt -3.001829 1.634169 0.000000
vt 3.001829 1.898596 0.000000
vt -3.001829 1.992793 0.000000
vt 3.001829 2.278315 0.000000
vt -3.001829 2.351416 0.000000
vt 3.001829 2.658034 0.000000
vt -3.001829 2.710040 0.000000
vt 3.001829 3.037753 0.000000
vt -3.001829 3.068664 0.000000
vt 3.001829 3.417473 0.000000
vt -3.001829 3.427287 0.000000
vt -3.001829 3.785911 0.000000
vt 3.001829 3.797192 0.000000
vt -3.001829 4.144535 0.000000
vt 3.001829 4.176911 0.000000
vt -3.001829 4.503158 0.000000
vt 3.001829 4.556630 0.000000
vt -3.001829 4.861782 0.000000
vt 3.001829 4.936349 0.000000
vt -3.001829 5.220406 0.000000
vt 3.001829 5.316069 0.000000
vt -3.001829 5.579029 0.000000
vt 3.001829 5.695788 0.000000
vt -3.001829 5.937653 0.000000
vt 3.001829 6.075507 0.000000
vt -3.001829 6.296277 0.000000
vt 3.001829 6.455226 0.000000
vt -3.001829 6.654900 0.000000
vt -3.001829 -6.255552 0.000000
vt 3.001829 -6.455226 0.000000
vt 3.001829 -6.075507 0.000000
vt -3.001829 -5.896928 0.000000
vt 3.001829 -5.695788 0.000000
vt -3.001829 -5.538304 0.000000
vt 3.001829 -5.316069 0.000000
vt -3.001829 -5.179681 0.000000
vt 3.001829 -4.936349 0.000000
vt -3.001829 -4.821057 0.000000
vt 3.001829 -4.556630 0.000000
vt -3.001829 -4.462433 0.000000
vt 3.001829 -4.176911 0.000000
vt -3.001829 -4.103810 0.000000
vt 3.001829 -3.797192 0.000000
vt -3.001829 -3.745186 0.000000
vt 3.001829 -3.417473 0.000000
vt -3.001829 -3.386562 0.000000
vt 3.001829 -3.037753 0.000000
vt -3.001829 -3.027939 0.000000
vt -3.001829 -2.669315 0.000000
vt 3.001829 -2.658034 0.000000
vt -3.001829 -2.310691 0.000000
vt 3.001829 -2.278315 0.000000
vt -3.001829 -1.952068 0.000000
vt 3.001829 -1.898596 0.000000
vt -3.001829 -1.593444 0.000000
vt 3.001829 -1.518877 0.000000
vt -3.001829 -1.234820 0.000000
vt 3.001829 -1.139158 0.000000
vt -3.001829 -0.876197 0.000000
vt 3.001829 -0.759438 0.000000
vt -3.001829 -0.517573 0.000000
vt 3.001829 -0.379719 0.000000
vt 2.080299 0.579570 0.000000
vt -2.091377 0.538228 0.000000
vt 2.149336 0.209525 0.000000
vt -2.153066 0.166887 0.000000
vt 2.153066 -0.166887 0.000000
vt -2.149336 -0.209525 0.000000
vt 2.091377 -0.538228 0.000000
vt -2.080299 -0.579570 0.000000
vt 1.966142 -0.893214 0.000000
vt -1.948054 -0.932005 0.000000
vt 1.781167 -1.221061 0.000000
vt -1.756617 -1.256122 0.000000
vt 1.542072 -1.511807 0.000000
vt -1.511807 -1.542072 0.000000
vt 1.256122 -1.756617 0.000000
vt -1.221061 -1.781167 0.000000
vt 0.932005 -1.948054 0.000000
vt -0.893214 -1.966142 0.000000
vt 0.579570 -2.080299 0.000000
vt -0.538228 -2.091377 0.000000
vt 0.209525 -2.149336 0.000000
vt -0.166887 -2.153066 0.000000
vt -1.966142 0.893214 0.000000
vt 1.948054 0.932005 0.000000
vt -1.781167 1.221061 0.000000
vt 1.756617 1.256122 0.000000
vt -1.542072 1.511807 0.000000
vt 1.511807 1.542072 0.000000
vt -1.256122 1.756617 0.000000
vt 1.221061 1.781167 0.000000
vt -0.932005 1.948054 0.000000
vt 0.893214 1.966142 0.000000
vt -0.579570 2.080299 0.000000
vt 0.538228 2.091377 0.000000
vt -0.209525 2.149336 0.000000
vt 0.166887 2.153066 0.000000
vn -0.000000 -1.000000 -0.000000
vn -0.000000 -1.000000 -0.000000
vn -0.000000 -1.000000 -0.000000
vn -0.000000 -1.000000 -0.000000
vn -0.000000 -1.000000 -0.000000
vn -0.000000 -1.000000 -0.000000
vn -0.000000 -1.000000 -0.000000
vn -0.000000 -1.000000 -0.000000
vn -0.000000 -1.000000 -0.000000
vn -0.000000 -1.000000 -0.000000
vn -0.000000 -1.000000 -0.000000
vn -0.000000 -1.000000 -0.000000
vn -0.000000 -1.000000 -0.000000
vn -0.000000 -1.000000 -0.000000
vn -0.000000 -1.000000 -0.000000
vn -0.000000 -1.000000 -0.000000
vn -0.000000 -1.000000 -0.000000
vn -0.000000 -1.000000 -0.000000
vn -0.000000 -1.000000 -0.000000
vn -0.000000 -1.000000 -0.000000
vn -0.000000 -1.000000 -0.000000
vn -0.000000 -1.000000 -0.000000
vn -0.000000 -1.000000 -0.000000
vn -0.000000 -1.000000 -0.000000
vn -0.000000 -1.000000 -0.000000
vn -0.000000 -1.000000 -0.000000
vn -0.000000 -1.000000 -0.000000
vn -0.000000 -1.000000 -0.000000
vn -0.000000 -1.000000 -0.000000
vn -0.000000 -1.000000 -0.000000
vn -0.000000 -1.000000 -0.000000
vn -0.000000 -1.000000 -0.000000
vn -0.000000 -1.000000 -0.000000
vn -0.000000 -1.000000 -0.000000
vn 0.996402 -0.034899 0.077232
vn 0.999391 -0.034899 -0.000000
vn 0.994676 -0.034899 -0.096964
vn 0.982374 -0.034899 -0.183638
vn 0.962727 -0.034899 -0.268215
vn 0.931904 -0.034899 -0.361022
vn 0.901526 -0.034899 -0.431316
vn 0.849699 -0.034899 -0.526111
vn 0.812932 -0.034899 -0.581312
vn 0.738559 -0.034899 -0.673285
vn 0.699638 -0.034899 -0.713644
vn 0.602268 -0.034899 -0.797531
vn 0.565086 -0.034899 -0.824293
vn 0.445467 -0.034899 -0.894618
vn 0.413364 -0.034899 -0.909897
vn 0.273496 -0.034899 -0.961240
vn 0.249082 -0.034899 -0.967853
vn 0.092212 -0.034899 -0.995128
vn 0.077232 -0.034899 -0.996402
vn -0.092212 -0.034899 -0.995128
vn -0.096964 -0.034899 -0.994676
vn -0.268215 -0.034899 -0.962727
vn -0.273496 -0.034899 -0.961240
vn -0.431316 -0.034899 -0.901526
vn -0.445467 -0.034899 -0.894618
vn -0.581312 -0.034899 -0.812932
vn -0.602268 -0.034899 -0.797531
vn -0.713644 -0.034899 -0.699638
vn -0.738559 -0.034899 -0.673285
vn -0.824293 -0.034899 -0.565086
vn -0.849699 -0.034899 -0.526111
vn -0.909897 -0.034899 -0.413364
vn -0.931904 -0.034899 -0.361022
vn -0.967853 -0.034899 -0.249082
vn -0.982374 -0.034899 -0.183638
vn -0.996402 -0.034899 -0.077232
vn -0.999391 -0.034899 -0.000000
vn -0.994676 -0.034899 0.096964
vn -0.982374 -0.034899 0.183638
vn -0.962727 -0.034899 0.268215
vn -0.931904 -0.034899 0.361022
vn -0.901526 -0.034899 0.431316
vn -0.849699 -0.034899 0.526111
vn -0.812932 -0.034899 0.581312
vn -0.738559 -0.034899 0.673285
vn -0.699638 -0.034899 0.713644
vn -0.602268 -0.034899 0.797531
vn -0.565086 -0.034899 0.824293
vn -0.445467 -0.034899 0.894618
vn -0.413364 -0.034899 0.909897
vn -0.273496 -0.034899 0.961240
vn -0.249082 -0.034899 0.967853
vn -0.092212 -0.034899 0.995128
vn -0.077232 -0.034899 0.996402
vn 0.092212 -0.034899 0.995128
vn 0.096964 -0.034899 0.994676
vn 0.268215 -0.034899 0.962727
vn 0.273496 -0.034899 0.961240
vn 0.431316 -0.034899 0.901526
vn 0.445467 -0.034899 0.894618
vn 0.581312 -0.034899 0.812932
vn 0.602268 -0.034899 0.797531
vn 0.713644 -0.034899 0.699638
vn 0.738559 -0.034899 0.673285
vn 0.824293 -0.034899 0.565086
vn 0.849699 -0.034899 0.526111
vn 0.909897 -0.034899 0.413364
vn 0.931904 -0.034899 0.361022
vn 0.967853 -0.034899 0.249082
vn 0.982374 -0.034899 0.183638
vn 0.000000 1.000000 0.000000
vn 0.000000 1.000000 0.000000
vn 0.000000 1.000000 0.000000
vn 0.000000 1.000000 0.000000
vn 0.000000 1.000000 0.000000
vn 0.000000 1.000000 0.000000
vn 0.000000 1.000000 0.000000
vn 0.000000 1.000000 0.000000
vn 0.000000 1.000000 0.000000
vn 0.000000 1.000000 0.000000
vn 0.000000 1.000000 0.000000
vn 0.000000 1.000000 0.000000
vn 0.000000 1.000000 0.000000
vn 0.000000 1.000000 0.000000
vn 0.000000 1.000000 0.000000
vn 0.000000 1.000000 0.000000
vn 0.000000 1.000000 0.000000
vn 0.000000 1.000000 0.000000
vn 0.000000 1.000000 0.000000
vn 0.000000 1.000000 0.000000
vn 0.000000 1.000000 0.000000
vn 0.000000 1.000000 0.000000
vn 0.000000 1.000000 0.000000
vn 0.000000 1.000000 0.000000
vn 0.000000 1.000000 0.000000
vn 0.000000 1.000000 0.000000
vn 0.000000 1.000000 0.000000
vn 0.000000 1.000000 0.000000
vn 0.000000 1.000000 0.000000
vn 0.000000 1.000000 0.000000
vn 0.000000 1.000000 0.000000
vn 0.000000 1.000000 0.000000
vn 0.000000 1.000000 0.000000
vn 0.000000 1.000000 0.000000
vn 0.000000 1.000000 0.000000
vn 0.000000 1.000000 0.000000
usemtl Steel_-_Satin
f 2/1/1 17/2/2 1/3/3
f 1/3/3 17/2/2 18/4/4
f 1/3/3 18/4/4 34/5/5
f 34/5/5 18/4/4 19/6/6
f 34/5/5 19/6/6 33/7/7
f 33/7/7 19/6/6 20/8/8
f 33/7/7 20/8/8 32/9/9
f 32/9/9 20/8/8 21/10/10
f 32/9/9 21/10/10 31/11/11
f 31/11/11 21/10/10 22/12/12
f 31/11/11 22/12/12 30/13/13
f 30/13/13 22/12/12 23/14/14
f 30/13/13 23/14/14 29/15/15
f 29/15/15 23/14/14 24/16/16
f 29/15/15 24/16/16 28/17/17
f 28/17/17 24/16/16 25/18/18
f 28/17/17 25/18/18 27/19/19
f 27/19/19 25/18/18 26/20/20
f 17/2/2 2/1/1 16/21/21
f 16/21/21 2/1/1 3/22/22
f 16/21/21 3/22/22 15/23/23
f 15/23/23 3/22/22 4/24/24
f 15/23/23 4/24/24 14/25/25
f 14/25/25 4/24/24 5/26/26
f 14/25/25 5/26/26 13/27/27
f 13/27/27 5/26/26 6/28/28
f 13/27/27 6/28/28 12/29/29
f 12/29/29 6/28/28 7/30/30
f 12/29/29 7/30/30 11/31/31
f 11/31/31 7/30/30 8/32/32
f 11/31/31 8/32/32 10/33/33
f 10/33/33 8/32/32 9/34/34
f 36/35/35 1/36/36 35/37/37
f 35/37/37 1/36/36 34/38/38
f 35/37/37 34/38/38 70/39/39
f 70/39/39 34/38/38 33/40/40
f 70/39/39 33/40/40 69/41/41
f 69/41/41 33/40/40 32/42/42
f 69/41/41 32/42/42 68/43/43
f 68/43/43 32/42/42 31/44/44
f 68/43/43 31/44/44 67/45/45
f 67/45/45 31/44/44 30/46/46
f 67/45/45 30/46/46 66/47/47
f 66/47/47 30/46/46 29/48/48
f 66/47/47 29/48/48 65/49/49
f 65/49/49 29/48/48 28/50/50
f 65/49/49 28/50/50 64/51/51
f 64/51/51 28/50/50 27/52/52
f 64/51/51 27/52/52 63/53/53
f 63/53/53 27/52/52 26/54/54
f 63/53/53 26/54/54 62/55/55
f 62/55/55 26/54/54 61/56/56
f 61/56/56 26/54/54 25/57/57
f 61/56/56 25/57/57 60/58/58
f 60/58/58 25/57/57 24/59/59
f 60/58/58 24/59/59 59/60/60
f 59/60/60 24/59/59 23/61/61
f 59/60/60 23/61/61 58/62/62
f 58/62/62 23/61/61 22/63/63
f 58/62/62 22/63/63 57/64/64
f 57/64/64 22/63/63 21/65/65
f 57/64/64 21/65/65 56/66/66
f 56/66/66 21/65/65 20/67/67
f 56/66/66 20/67/67 55/68/68
f 55/68/68 20/67/67 19/69/69
f 55/68/68 19/69/69 54/70/70
f 54/70/70 19/69/69 18/71/71
f 54/70/70 18/71/71 53/72/72
f 53/73/72 18/74/71 17/75/73
f 53/73/72 17/75/73 52/76/74
f 52/76/74 17/75/73 16/77/75
f 52/76/74 16/77/75 51/78/76
f 51/78/76 16/77/75 15/79/77
f 51/78/76 15/79/77 50/80/78
f 50/80/78 15/79/77 14/81/79
f 50/80/78 14/81/79 49/82/80
f 49/82/80 14/81/79 13/83/81
f 49/82/80 13/83/81 48/84/82
f 48/84/82 13/83/81 12/85/83
f 48/84/82 12/85/83 47/86/84
f 47/86/84 12/85/83 11/87/85
f 47/86/84 11/87/85 46/88/86
f 46/88/86 11/87/85 10/89/87
f 46/88/86 10/89/87 45/90/88
f 45/90/88 10/89/87 9/91/89
f 45/90/88 9/91/89 44/92/90
f 44/92/90 9/91/89 43/93/91
f 43/93/91 9/91/89 8/94/92
f 43/93/91 8/94/92 42/95/93
f 42/95/93 8/94/92 7/96/94
f 42/95/93 7/96/94 41/97/95
f 41/97/95 7/96/94 6/98/96
f 41/97/95 6/98/96 40/99/97
f 40/99/97 6/98/96 5/100/98
f 40/99/97 5/100/98 39/101/99
f 39/101/99 5/100/98 4/102/100
f 39/101/99 4/102/100 38/103/101
f 38/103/101 4/102/100 3/104/102
f 38/103/101 3/104/102 37/105/103
f 37/105/103 3/104/102 2/106/104
f 37/105/103 2/106/104 36/35/35
f 36/35/35 2/106/104 1/36/36
f 70/107/105 55/108/106 35/109/107
f 35/109/107 55/108/106 54/110/108
f 35/109/107 54/110/108 36/111/109
f 36/111/109 54/110/108 53/112/110
f 36/111/109 53/112/110 37/113/111
f 37/113/111 53/112/110 52/114/112
f 37/113/111 52/114/112 38/115/113
f 38/115/113 52/114/112 51/116/114
f 38/115/113 51/116/114 39/117/115
f 39/117/115 51/116/114 50/118/116
f 39/117/115 50/118/116 40/119/117
f 40/119/117 50/118/116 49/120/118
f 40/119/117 49/120/118 41/121/119
f 41/121/119 49/120/118 48/122/120
f 41/121/119 48/122/120 42/123/121
f 42/123/121 48/122/120 47/124/122
f 42/123/121 47/124/122 43/125/123
f 43/125/123 47/124/122 46/126/124
f 43/125/123 46/126/124 44/127/125
f 44/127/125 46/126/124 45/128/126
f 55/108/106 70/107/105 56/129/127
f 56/129/127 70/107/105 69/130/128
f 56/129/127 69/130/128 57/131/129
f 57/131/129 69/130/128 68/132/130
f 57/131/129 68/132/130 58/133/131
f 58/133/131 68/132/130 67/134/132
f 58/133/131 67/134/132 59/135/133
f 59/135/133 67/134/132 66/136/134
f 59/135/133 66/136/134 60/137/135
f 60/137/135 66/136/134 65/138/136
f 60/137/135 65/138/136 61/139/137
f 61/139/137 65/138/136 64/140/138
f 61/139/137 64/140/138 62/141/139
f 62/141/139 64/140/138 63/142/140
# 70 vertices
# 142 texture params
# 140 normals
# 136 facets

# 1 groups
